<svg width="217" height="217" viewBox="0 0 217 217" fill="none" xmlns="http://www.w3.org/2000/svg">
<rect width="217" height="217" fill="#1C1C1C"/>
<path d="M85.416 70.144C85.928 70.144 86.7387 70.3573 87.848 70.784C89.0427 71.1253 90.2373 71.552 91.432 72.064C92.6267 72.576 93.7787 73.088 94.888 73.6C95.9973 74.112 96.7653 74.496 97.192 74.752C99.1547 76.032 100.904 77.5253 102.44 79.232C103.976 80.8533 104.957 82.0053 105.384 82.688C106.067 83.968 106.749 85.1627 107.432 86.272C108.2 87.296 108.797 88.4907 109.224 89.856L111.272 97.024V101.376C111.443 101.632 111.528 101.931 111.528 102.272C111.528 102.613 111.528 102.912 111.528 103.168C111.528 104.448 111.485 105.685 111.4 106.88C111.4 108.075 111.4 109.312 111.4 110.592C111.4 110.933 111.357 111.445 111.272 112.128C111.187 112.811 111.101 113.536 111.016 114.304C110.931 115.072 110.845 115.797 110.76 116.48C110.675 117.077 110.589 117.547 110.504 117.888C110.419 119.083 110.163 120.363 109.736 121.728C109.309 123.008 108.883 124.16 108.456 125.184C107.859 126.72 107.091 128.64 106.152 130.944C105.299 133.248 103.933 135.296 102.056 137.088C101.8 137.259 101.971 137.557 102.568 137.984C103.165 138.411 103.677 138.88 104.104 139.392C104.531 139.904 104.957 140.501 105.384 141.184C105.896 141.867 106.365 142.421 106.792 142.848C106.963 143.019 107.091 143.147 107.176 143.232C107.261 143.232 107.389 143.317 107.56 143.488L108.456 144.64C108.456 145.067 108.2 145.408 107.688 145.664C107.261 145.92 106.792 146.176 106.28 146.432C106.28 146.432 106.152 146.475 105.896 146.56C105.725 146.731 105.427 146.944 105 147.2C104.659 147.456 104.275 147.712 103.848 147.968C103.421 148.224 103.08 148.437 102.824 148.608C101.373 147.925 99.9653 147.157 98.6 146.304C97.32 145.451 96.04 144.683 94.76 144C93.9067 144.341 93.1387 144.683 92.456 145.024C91.7733 145.451 91.048 145.877 90.28 146.304C89.9387 146.304 89.5973 146.389 89.256 146.56C88.9147 146.816 88.616 146.944 88.36 146.944C87.4213 147.371 86.696 147.627 86.184 147.712C85.7573 147.797 85.2027 148.011 84.52 148.352C84.1787 148.352 83.8373 148.437 83.496 148.608C83.1547 148.864 82.8133 148.992 82.472 148.992C80.68 148.992 78.504 148.907 75.944 148.736C73.4693 148.565 71.464 148.181 69.928 147.584L64.808 145.664C63.3573 144.981 61.9067 144 60.456 142.72C59.0907 141.44 57.9387 140.331 57 139.392L55.72 138.112C54.7813 137.173 54.0133 136.277 53.416 135.424C52.904 134.485 52.3067 133.504 51.624 132.48C50.9413 131.541 50.2587 130.517 49.576 129.408C48.8933 128.299 48.3387 127.061 47.912 125.696L46.888 122.368C46.5467 120.491 46.2053 118.784 45.864 117.248C45.5227 115.627 45.1813 113.877 44.84 112C44.84 111.061 44.84 110.08 44.84 109.056C44.9253 107.947 45.1387 106.795 45.48 105.6C45.48 104.235 45.48 102.827 45.48 101.376C45.5653 99.9253 45.8213 98.4747 46.248 97.024C46.248 96.8533 46.4187 96.256 46.76 95.232C47.1013 94.208 47.4427 93.0987 47.784 91.904C48.2107 90.624 48.5947 89.472 48.936 88.448C49.3627 87.3387 49.6187 86.656 49.704 86.4C49.7893 86.2293 50.0027 85.888 50.344 85.376C50.7707 84.864 51.1973 84.3093 51.624 83.712C52.136 83.1147 52.5627 82.56 52.904 82.048C53.3307 81.4507 53.6293 81.0667 53.8 80.896C54.9947 79.4453 56.1467 78.2507 57.256 77.312C58.3653 76.288 59.5173 75.2213 60.712 74.112C61.48 73.4293 62.76 72.7467 64.552 72.064C66.344 71.296 68.136 70.6133 69.928 70.016C70.952 69.76 71.9333 69.632 72.872 69.632H74.28C76.1573 69.632 78.12 69.632 80.168 69.632C82.3013 69.632 84.0507 69.8027 85.416 70.144ZM62.12 105.088C62.12 106.027 62.0773 106.795 61.992 107.392C61.992 107.989 61.992 108.629 61.992 109.312C61.992 110.336 62.0347 111.531 62.12 112.896C62.2053 114.261 62.504 115.456 63.016 116.48C63.4427 118.613 63.6987 120.192 63.784 121.216C63.9547 122.24 64.168 123.264 64.424 124.288C64.68 125.312 64.9787 126.165 65.32 126.848C65.6613 127.445 66.0453 128.085 66.472 128.768C66.728 129.024 67.0693 129.408 67.496 129.92C67.9227 130.347 68.392 130.816 68.904 131.328C69.416 131.755 69.928 132.181 70.44 132.608C70.952 132.949 71.336 133.163 71.592 133.248C74.152 135.381 77.224 136.107 80.808 135.424C81.1493 135.424 81.6187 135.296 82.216 135.04C82.8987 134.699 83.4533 134.315 83.88 133.888C83.5387 133.547 83.1973 133.205 82.856 132.864C82.2587 132.267 81.7893 131.712 81.448 131.2L80.936 130.304C81.8747 129.451 82.8987 128.853 84.008 128.512C84.9467 128.085 85.8853 127.573 86.824 126.976C87.7627 126.293 88.7013 125.696 89.64 125.184C89.7253 125.355 89.8107 125.525 89.896 125.696C90.0667 125.781 90.1947 125.909 90.28 126.08L90.536 126.592C90.7067 126.848 90.92 127.232 91.176 127.744C91.432 128.256 91.6453 128.597 91.816 128.768C92.072 129.195 92.2427 129.451 92.328 129.536C92.4987 129.621 92.7547 129.835 93.096 130.176C93.2667 130.176 93.5653 129.707 93.992 128.768C94.504 127.744 94.8027 127.019 94.888 126.592C95.144 124.885 95.3147 123.477 95.4 122.368C95.5707 121.173 95.6987 119.723 95.784 118.016C95.784 117.333 95.8693 116.523 96.04 115.584C96.296 114.56 96.424 113.707 96.424 113.024C96.424 112.085 96.424 111.061 96.424 109.952C96.5093 108.843 96.424 107.648 96.168 106.368C96.0827 106.112 95.9547 105.429 95.784 104.32C95.6133 103.125 95.4427 102.4 95.272 102.144C95.016 101.205 94.76 100.395 94.504 99.712C94.248 99.0293 93.992 98.3467 93.736 97.664C93.224 96.5547 92.7973 95.4027 92.456 94.208C92.2 93.7813 91.9867 93.184 91.816 92.416C91.6453 91.5627 91.3893 90.9227 91.048 90.496C90.6213 90.1547 90.2373 89.728 89.896 89.216C89.5547 88.6187 89.0427 88.1067 88.36 87.68C87.4213 86.912 86.568 86.2293 85.8 85.632C85.032 84.9493 84.136 84.3947 83.112 83.968C81.9173 83.5413 80.8507 83.3707 79.912 83.456C78.9733 83.5413 77.9493 83.584 76.84 83.584C76.4133 83.584 75.944 83.6693 75.432 83.84C74.92 83.9253 74.408 84.0533 73.896 84.224C72.104 84.8213 70.6533 85.8027 69.544 87.168C68.4347 88.5333 67.2827 89.9413 66.088 91.392C65.32 92.5867 64.7227 93.8667 64.296 95.232C63.9547 96.5973 63.656 97.8773 63.4 99.072C63.3147 99.4987 63.1867 100.011 63.016 100.608C62.9307 101.12 62.8453 101.547 62.76 101.888C62.5893 102.4 62.4187 102.955 62.248 103.552C62.1627 104.149 62.12 104.661 62.12 105.088ZM154.543 146.944C154.372 146.944 154.074 146.987 153.647 147.072C153.22 147.157 152.794 147.2 152.367 147.2C151.94 147.285 151.556 147.328 151.215 147.328C150.959 147.413 150.874 147.456 150.959 147.456H144.687C143.322 147.285 142.17 147.157 141.231 147.072C140.378 147.072 139.61 147.115 138.927 147.2C138.756 147.2 138.586 147.115 138.415 146.944C138.244 146.859 138.116 146.773 138.031 146.688C137.946 145.92 137.903 144.768 137.903 143.232C137.988 141.696 138.031 140.501 138.031 139.648V137.856C138.202 136.405 138.244 135.125 138.159 134.016C138.074 132.821 138.031 131.499 138.031 130.048V127.232C138.458 125.355 138.543 123.392 138.287 121.344C138.116 119.296 138.031 117.419 138.031 115.712V83.072C138.031 82.2187 137.818 81.792 137.391 81.792C136.196 81.7067 135.258 81.664 134.575 81.664C133.892 81.664 132.954 81.7067 131.759 81.792C131.247 81.792 130.351 81.664 129.071 81.408C127.876 81.152 127.066 81.0667 126.639 81.152C126.212 81.3227 125.316 81.3227 123.951 81.152C122.671 80.9813 121.818 80.896 121.391 80.896C120.964 80.896 120.58 80.896 120.239 80.896C119.898 80.8107 119.556 80.64 119.215 80.384V72.448C119.556 72.2773 120.068 72.192 120.751 72.192C121.434 72.192 122.116 72.192 122.799 72.192C123.652 72.192 124.42 72.192 125.103 72.192C125.786 72.192 126.426 72.1493 127.023 72.064C127.194 72.064 127.791 72.1067 128.815 72.192C129.839 72.2773 130.692 72.3627 131.375 72.448C131.887 72.2773 132.399 72.192 132.911 72.192C134.191 72.1067 135.386 72.1067 136.495 72.192C137.263 72.2773 137.818 72.2773 138.159 72.192C138.5 72.1067 139.012 72.064 139.695 72.064H141.743L145.199 72.32C146.052 72.32 146.906 72.32 147.759 72.32C148.612 72.2347 149.466 72.2347 150.319 72.32C152.282 72.4907 154.159 72.576 155.951 72.576C157.828 72.4907 159.364 72.3627 160.559 72.192C161.156 72.192 162.223 72.2773 163.759 72.448C165.295 72.6187 166.788 72.7467 168.239 72.832C169.178 72.9173 169.946 72.9173 170.543 72.832C171.14 72.7467 171.652 72.7467 172.079 72.832V78.72C172.079 79.0613 172.122 79.2747 172.207 79.36C172.292 79.4453 172.25 79.8293 172.079 80.512C171.994 80.8533 171.652 81.0667 171.055 81.152C170.458 81.152 169.988 81.152 169.647 81.152C167.428 81.4933 165.38 81.6213 163.503 81.536C161.711 81.4507 159.962 81.408 158.255 81.408C157.572 81.408 157.018 81.408 156.591 81.408C156.25 81.408 155.823 81.4507 155.311 81.536V84.48C155.311 85.1627 155.268 86.1867 155.183 87.552C155.183 88.9173 155.183 89.984 155.183 90.752C155.183 91.0933 155.183 91.3493 155.183 91.52C155.183 91.6907 155.14 91.9467 155.055 92.288C155.055 92.544 155.012 92.9707 154.927 93.568C154.842 94.08 154.671 94.848 154.415 95.872C154.415 97.3227 154.415 98.56 154.415 99.584C154.415 100.608 154.415 101.547 154.415 102.4C154.5 103.253 154.543 104.107 154.543 104.96C154.543 105.728 154.543 106.667 154.543 107.776V109.056C154.202 110.507 154.116 111.957 154.287 113.408C154.458 114.859 154.543 116.309 154.543 117.76V146.944Z" fill="url(#paint0_linear_112_5)"/>
<defs>
<linearGradient id="paint0_linear_112_5" x1="176" y1="72.5" x2="49.5" y2="150" gradientUnits="userSpaceOnUse">
<stop stop-color="#8E5050"/>
<stop offset="1" stop-color="#A23030"/>
</linearGradient>
</defs>
</svg>
